<svg width="37" height="38" viewBox="0 0 37 38" fill="none" xmlns="http://www.w3.org/2000/svg">
<g clip-path="url(#clip0_3_17)">
<path fill-rule="evenodd" clip-rule="evenodd" d="M18.2773 0C8.1791 0 0 8.29191 0 18.5294C0 26.7287 5.23188 33.654 12.4971 36.1092C13.411 36.2713 13.7537 35.7154 13.7537 35.229C13.7537 34.789 13.7308 33.3298 13.7308 31.7779C9.13866 32.6349 7.95063 30.643 7.58508 29.6007C7.37946 29.068 6.48845 27.4235 5.71166 26.9835C5.07195 26.636 4.15809 25.779 5.68881 25.7559C7.12815 25.7327 8.15625 27.0993 8.49895 27.6551C10.1439 30.4577 12.7713 29.6702 13.8222 29.1838C13.9821 27.9794 14.4619 27.1687 14.9874 26.7055C10.9207 26.2423 6.67122 24.6441 6.67122 17.5566C6.67122 15.5415 7.37947 13.8739 8.54464 12.5768C8.36187 12.1136 7.72216 10.2143 8.72742 7.66654C8.72742 7.66654 10.2581 7.18015 13.7537 9.56581C15.2159 9.1489 16.7694 8.94044 18.323 8.94044C19.8766 8.94044 21.4301 9.1489 22.8923 9.56581C26.3879 7.15699 27.9186 7.66654 27.9186 7.66654C28.9238 10.2143 28.2841 12.1136 28.1014 12.5768C29.2665 13.8739 29.9748 15.5184 29.9748 17.5566C29.9748 24.6673 25.7025 26.2423 21.6358 26.7055C22.2983 27.2846 22.8695 28.3963 22.8695 30.1335C22.8695 32.6118 22.8466 34.6037 22.8466 35.229C22.8466 35.7154 23.1893 36.2945 24.1032 36.1092C27.7315 34.8673 30.8844 32.5032 33.118 29.3496C35.3516 26.196 36.5535 22.4118 36.5546 18.5294C36.5546 8.29191 28.3755 0 18.2773 0Z" fill="black"/>
</g>
<defs>
<clipPath id="clip0_3_17">
<rect width="36.5546" height="37.0588" fill="white"/>
</clipPath>
</defs>
</svg>
