<svg width="28" height="27" viewBox="0 0 28 27" fill="none" xmlns="http://www.w3.org/2000/svg">
<path d="M14 9.98527C11.993 9.98527 10.3551 11.5647 10.3551 13.5C10.3551 15.4354 11.993 17.0148 14 17.0148C16.007 17.0148 17.6449 15.4354 17.6449 13.5C17.6449 11.5647 16.007 9.98527 14 9.98527ZM24.932 13.5C24.932 12.0445 24.9457 10.6023 24.8609 9.14943C24.7762 7.46193 24.377 5.96427 23.0973 4.73029C21.8148 3.49367 20.2645 3.11134 18.5145 3.02961C17.0051 2.94787 15.5094 2.96105 14.0027 2.96105C12.4934 2.96105 10.9977 2.94787 9.49102 3.02961C7.74102 3.11134 6.18789 3.4963 4.9082 4.73029C3.62578 5.96691 3.2293 7.46193 3.14453 9.14943C3.05977 10.6049 3.07344 12.0472 3.07344 13.5C3.07344 14.9528 3.05977 16.3978 3.14453 17.8506C3.2293 19.5381 3.62852 21.0358 4.9082 22.2697C6.19062 23.5064 7.74102 23.8887 9.49102 23.9704C11.0004 24.0522 12.4961 24.039 14.0027 24.039C15.5121 24.039 17.0078 24.0522 18.5145 23.9704C20.2645 23.8887 21.8176 23.5037 23.0973 22.2697C24.3797 21.0331 24.7762 19.5381 24.8609 17.8506C24.9484 16.3978 24.932 14.9555 24.932 13.5ZM14 18.9079C10.8965 18.9079 8.3918 16.4927 8.3918 13.5C8.3918 10.5073 10.8965 8.09211 14 8.09211C17.1035 8.09211 19.6082 10.5073 19.6082 13.5C19.6082 16.4927 17.1035 18.9079 14 18.9079ZM19.8379 9.13361C19.1133 9.13361 18.5281 8.56935 18.5281 7.87062C18.5281 7.17189 19.1133 6.60763 19.8379 6.60763C20.5625 6.60763 21.1477 7.17189 21.1477 7.87062C21.1479 8.03654 21.1141 8.20087 21.0484 8.35419C20.9826 8.50752 20.8862 8.64683 20.7645 8.76415C20.6428 8.88147 20.4984 8.9745 20.3394 9.03789C20.1804 9.10129 20.01 9.13382 19.8379 9.13361Z" fill="black"/>
</svg>
