<svg width="31" height="28" viewBox="0 0 31 28" fill="none" xmlns="http://www.w3.org/2000/svg">
<g clip-path="url(#clip0_3_27)">
<path d="M27.8397 4.66667C27.7223 4.65575 27.604 4.65575 27.4867 4.66667H3.37556C3.22102 4.66882 3.06752 4.68975 2.91917 4.72889L15.3622 15.9211L27.8397 4.66667Z" fill="black"/>
<path d="M29.1142 5.74777L16.5764 17.0255C16.2537 17.3153 15.8172 17.4779 15.3622 17.4779C14.9072 17.4779 14.4707 17.3153 14.1481 17.0255L1.72222 5.83333C1.68402 5.96014 1.66377 6.09081 1.66194 6.22222V21.7778C1.66194 22.1903 1.84339 22.586 2.16637 22.8777C2.48935 23.1694 2.9274 23.3333 3.38417 23.3333H27.4953C27.952 23.3333 28.3901 23.1694 28.7131 22.8777C29.0361 22.586 29.2175 22.1903 29.2175 21.7778V6.22222C29.2106 6.06017 29.1758 5.90009 29.1142 5.74777ZM4.56389 21.7778H3.36694V20.6656L9.62722 15.0578L10.8414 16.1544L4.56389 21.7778ZM27.4781 21.7778H26.2725L19.995 16.1544L21.2092 15.0578L27.4694 20.6656L27.4781 21.7778Z" fill="black"/>
</g>
<defs>
<clipPath id="clip0_3_27">
<rect width="31" height="28" fill="white"/>
</clipPath>
</defs>
</svg>
